<?xml version="1.0" encoding="UTF-8" standalone="no"?>
<svg
   xmlns:dc="http://purl.org/dc/elements/1.1/"
   xmlns:cc="http://creativecommons.org/ns#"
   xmlns:rdf="http://www.w3.org/1999/02/22-rdf-syntax-ns#"
   xmlns:svg="http://www.w3.org/2000/svg"
   xmlns="http://www.w3.org/2000/svg"
   xmlns:sodipodi="http://sodipodi.sourceforge.net/DTD/sodipodi-0.dtd"
   xmlns:inkscape="http://www.inkscape.org/namespaces/inkscape"
   inkscape:version="1.0beta1 (32d4812, 2019-09-19)"
   sodipodi:docname="Seinfeld.svg"
   xml:space="preserve"
   enable-background="new 0 0 1000 432.837"
   viewBox="0 0 1000.001 432.83801"
   height="432.83801"
   width="1000.001"
   y="0px"
   x="0px"
   id="Layer_1"
   version="1.1"><metadata
   id="metadata29">
  <rdf:RDF>
    <cc:Work
       rdf:about="">
      <dc:format>image/svg+xml</dc:format>
      <dc:type
         rdf:resource="http://purl.org/dc/dcmitype/StillImage" />
      <dc:title></dc:title>
    </cc:Work>
  </rdf:RDF>
</metadata>
<defs
   id="defs27" />
<sodipodi:namedview
   inkscape:current-layer="g22"
   inkscape:window-maximized="0"
   inkscape:window-y="23"
   inkscape:window-x="0"
   inkscape:cy="197.27581"
   inkscape:cx="523.32869"
   inkscape:zoom="0.7"
   showgrid="false"
   id="namedview25"
   inkscape:window-height="907"
   inkscape:window-width="1680"
   inkscape:pageshadow="2"
   inkscape:pageopacity="0"
   guidetolerance="10"
   gridtolerance="10"
   objecttolerance="10"
   borderopacity="1"
   inkscape:document-rotation="0"
   bordercolor="#666666"
   pagecolor="#ffffff" />

<g
   id="g22">
	<path
   inkscape:connector-curvature="0"
   id="path10"
   d="m 993.786,105.639 c 4.284,9.793 6.44,20.217 6.196,31.258 C 997.592,244.565 771.705,369.858 497.136,415.816 243.332,458.295 34.475,418.5 6.214,327.196 43.74,412.91 247.777,449.239 494.202,407.987 768.77,362.03 994.659,236.736 997.042,129.068 c 0.183,-8.146 -0.944,-15.956 -3.256,-23.429 z"
   clip-rule="evenodd"
   fill-rule="evenodd" />

	<path
   inkscape:connector-curvature="0"
   id="path12"
   d="M 502.865,17.023 C 777.439,-28.935 999.431,21.396 997.043,129.067 994.659,236.735 768.771,362.034 494.2,407.986 219.628,453.944 -2.368,403.613 0.019,295.951 2.406,188.277 228.293,62.981 502.865,17.023 Z"
   fill="#FCD63C"
   clip-rule="evenodd"
   fill-rule="evenodd" />

	<polygon
   id="polygon14"
   points="388.351,83.118 421.67,23.486 425.816,23.486 390.271,87.099 "
   clip-rule="evenodd"
   fill-rule="evenodd" />

	<polygon
   style="fill:#ee2530;fill-opacity:1"
   id="polygon16"
   points="357.621,19.568 423.857,19.568 388.312,83.185 "
   fill="#00B4C9"
   clip-rule="evenodd"
   fill-rule="evenodd" />

	<path
   inkscape:connector-curvature="0"
   id="path18"
   d="m 360.377,111.314 h 42.668 l -28.872,222.954 h 15.422 l -1.484,11.44 h -58.09 l 1.48,-11.44 h 15.425 L 374.32,122.754 h -15.425 z m 390.04,150.499 c -5.646,27.481 -13.941,49.008 -24.849,64.499 -12.186,17.309 -26.743,25.921 -43.69,25.921 -18.987,0 -33.256,-11.902 -42.758,-35.789 -9.501,-23.888 -11.824,-54.281 -7.028,-91.088 4.762,-36.581 14.963,-66.655 30.594,-90.231 15.631,-23.573 32.889,-35.323 51.775,-35.323 17.625,0 30.166,8.771 37.656,26.396 7.501,17.542 9.219,42.135 5.117,73.624 l -0.866,6.656 H 664.93 c -0.233,1.803 -0.7,5.012 -1.39,9.56 -0.678,4.462 -1.2,8.062 -1.533,10.646 -4.823,37.045 -5.106,65.006 -0.795,83.887 4.307,18.875 13.053,28.349 26.249,28.349 12.758,0 24.177,-7.673 34.245,-22.948 8.829,-13.446 15.719,-31.466 20.642,-54.158 1.135,-9.515 9.78,-8.092 8.069,-0.001 z m -82.963,-67.24 60.493,0.233 c 0.533,-3.367 1.045,-6.579 1.483,-9.554 0.434,-2.976 0.795,-5.718 1.14,-8.382 2.95,-22.635 2.95,-39.474 -0.033,-50.595 -2.989,-11.044 -8.936,-16.605 -17.897,-16.605 -10.174,0 -19.226,7.44 -27.088,22.242 -7.88,14.883 -13.909,35.717 -18.098,62.661 z m -329.047,67.24 c -5.648,27.481 -13.944,49.008 -24.852,64.499 -12.186,17.309 -26.743,25.921 -43.688,25.921 -18.986,0 -33.258,-11.902 -42.76,-35.789 -9.499,-23.888 -11.822,-54.281 -7.029,-91.088 4.765,-36.581 14.964,-66.655 30.594,-90.231 15.63,-23.573 32.889,-35.323 51.778,-35.323 17.622,0 30.163,8.771 37.653,26.396 7.501,17.542 9.215,42.135 5.115,73.624 l -0.867,6.656 h -91.435 c -0.233,1.803 -0.7,5.012 -1.389,9.56 -0.681,4.462 -1.197,8.062 -1.536,10.646 -4.82,37.045 -5.104,65.006 -0.794,83.887 4.309,18.875 13.055,28.349 26.249,28.349 12.758,0 24.176,-7.673 34.248,-22.948 8.832,-13.446 15.716,-31.466 20.64,-54.158 1.138,-9.515 9.781,-8.092 8.073,-0.001 z m -82.962,-67.24 60.485,0.233 c 0.536,-3.367 1.05,-6.579 1.489,-9.554 0.437,-2.976 0.792,-5.718 1.139,-8.382 2.948,-22.635 2.951,-39.474 -0.033,-50.595 -2.992,-11.044 -8.938,-16.605 -17.897,-16.605 -10.177,0 -19.226,7.44 -27.093,22.242 -7.877,14.883 -13.903,35.717 -18.09,62.661 z M 76.563,231.862 c 0.017,0.617 0.031,1.628 0.117,3.173 3.614,75.013 16.125,111.891 37.573,110.713 14.316,-0.789 27.01,-8.323 38.198,-22.676 11.135,-14.353 18.034,-31.811 20.698,-52.447 1.809,-13.992 0.595,-25.722 -3.656,-35.034 -4.304,-9.313 -14.925,-20.059 -31.911,-32.316 -25.329,-18.012 -40.996,-33.447 -46.96,-46.158 -5.959,-12.788 -7.682,-29.071 -5.14,-48.771 3.333,-25.799 12.691,-47.116 28.129,-64.033 15.394,-16.917 33.986,-26.01 55.723,-27.208 8.482,-0.469 16.85,0.7 25.113,3.428 8.31,2.723 16.367,7.013 24.215,12.947 -3.856,29.861 -7.715,59.724 -11.572,89.587 -0.4,6.962 -6.276,6.765 -6.362,0.35 -0.17,-2.398 -0.358,-5.723 -0.675,-9.977 -3.526,-58.638 -15.603,-87.392 -36.231,-86.253 -13.736,0.756 -25.752,6.695 -36.098,17.9 -10.299,11.202 -16.52,24.893 -18.606,41.076 -3.234,25.013 10.429,48.169 41.043,69.381 1.411,0.931 2.37,1.653 2.986,2.087 23.415,16.172 38.093,30.729 43.96,43.835 5.868,13.104 7.504,29.702 4.898,49.872 -3.687,28.533 -14.158,52.942 -31.361,73.135 -17.253,20.203 -37.062,30.916 -59.471,32.155 -12.244,0.672 -23.229,-1.361 -32.989,-6.179 -9.771,-4.74 -16.669,-11.347 -20.706,-19.736 4.239,-32.834 8.481,-65.667 12.721,-98.5 0.457,-5.229 5.977,-5.24 6.364,-0.351 z M 898.331,118.071 c -10.918,0 -20.119,9.29 -27.648,27.793 -7.49,18.503 -13.708,47.216 -18.643,85.987 -4.617,36.316 -5.473,63.188 -2.572,80.691 2.962,17.431 9.773,26.176 20.504,26.176 10.49,0 19.425,-8.979 26.782,-26.865 7.362,-17.887 13.413,-45.302 18.114,-82.23 5.039,-39.615 6.239,-68.098 3.645,-85.447 -2.635,-17.431 -9.313,-26.105 -20.182,-26.105 z m 23.91,-80.536 1.461,-11.44 h 42.908 l -39.162,307.718 h 16.136 l -1.517,11.896 h -40.479 l 6.04,-47.446 c -5.129,18.275 -11.336,31.86 -18.614,40.69 -7.279,8.829 -15.87,13.285 -25.799,13.285 -16.515,0 -28.517,-11.213 -36.101,-33.706 -7.54,-22.492 -9.029,-51.825 -4.429,-87.986 4.584,-36.006 13.841,-65.873 27.738,-89.674 13.88,-23.724 29.016,-35.623 45.291,-35.623 8.862,0 15.708,3.762 20.637,11.21 4.917,7.523 7.901,18.886 8.868,34.008 L 939.594,37.534 H 922.241 Z M 784.734,26.095 h 42.063 l -39.346,308.174 h 16.33 l -1.461,11.44 h -58.388 l 1.456,-11.44 h 15.208 L 798.48,37.536 H 783.272 Z M 616.228,345.709 h -70.662 l 1.65,-12.079 h 17.981 l 29.255,-214.217 h -14.408 l 1.583,-11.613 h 14.414 l 1.806,-13.247 c 3.617,-26.494 9.891,-46.366 18.781,-59.768 8.94,-13.405 20.42,-20.104 34.545,-20.104 4.723,0 9.34,0.778 13.791,2.414 4.462,1.556 8.796,4.054 13.107,7.404 -2.634,19.325 -5.278,38.65 -7.912,57.977 -0.589,6.551 -8.924,6.006 -9.347,0 -1.967,-25.404 -3.839,-41.457 -5.578,-48.083 -1.733,-6.621 -4.184,-9.893 -7.335,-9.893 -4.161,0 -7.484,3.114 -10.013,9.349 -2.479,6.234 -5.162,19.95 -8.046,41.068 l -4.489,32.883 h 34.389 l -1.589,11.613 H 623.762 L 594.508,333.63 h 23.364 z m -217.111,0 1.525,-11.44 h 15.589 l 28.207,-211.514 h -15.594 l 1.528,-11.44 h 41.099 l -5.273,39.54 c 4.59,-13.897 11.216,-25.104 19.809,-33.475 8.64,-8.368 17.759,-12.591 27.383,-12.591 14.907,0 24.604,6.065 29.094,18.195 4.483,12.21 4.256,36.623 -0.64,73.324 L 523.447,334.27 h 15.592 l -1.528,11.44 H 479.7 l 1.525,-11.44 h 15.883 L 516.04,192.313 c 4.278,-32.092 5.434,-52.515 3.417,-61.188 -1.967,-8.676 -6.957,-13.052 -14.97,-13.052 -9.923,0 -18.944,7.907 -27.004,23.646 -8.06,15.739 -13.877,37.006 -17.461,63.877 L 442.863,334.27 h 15.589 l -1.525,11.44 h -57.81 z"
   clip-rule="evenodd"
   fill-rule="evenodd" />

	<path
   inkscape:connector-curvature="0"
   id="path20"
   d="m 357.443,107.4 h 42.668 l -28.875,222.957 h 15.422 l -1.481,11.441 h -58.093 l 1.483,-11.441 h 15.425 l 27.391,-211.516 h -15.422 z m 390.041,150.5 c -5.646,27.482 -13.941,49.002 -24.849,64.494 -12.186,17.313 -26.749,25.926 -43.691,25.926 -18.986,0 -33.255,-11.907 -42.757,-35.795 -9.501,-23.887 -11.824,-54.275 -7.028,-91.087 4.762,-36.576 14.957,-66.65 30.594,-90.227 15.63,-23.573 32.889,-35.325 51.775,-35.325 17.625,0 30.166,8.771 37.656,26.396 7.501,17.544 9.213,42.138 5.111,73.623 l -0.866,6.657 h -91.433 c -0.232,1.803 -0.705,5.012 -1.395,9.554 -0.678,4.465 -1.194,8.071 -1.533,10.654 -4.823,37.046 -5.101,65.006 -0.795,83.881 4.307,18.876 13.058,28.355 26.249,28.355 12.758,0 24.177,-7.674 34.25,-22.954 8.829,-13.446 15.714,-31.467 20.637,-54.153 1.14,-9.511 9.786,-8.089 8.075,10e-4 z m -82.964,-67.242 60.487,0.236 c 0.539,-3.37 1.051,-6.582 1.489,-9.558 0.434,-2.975 0.789,-5.717 1.14,-8.379 2.944,-22.637 2.95,-39.473 -0.034,-50.598 -2.989,-11.041 -8.939,-16.603 -17.896,-16.603 -10.175,0 -19.226,7.44 -27.094,22.243 -7.879,14.885 -13.903,35.716 -18.092,62.659 z M 335.47,257.9 c -5.646,27.482 -13.944,49.002 -24.849,64.494 -12.186,17.313 -26.747,25.926 -43.691,25.926 -18.987,0 -33.258,-11.907 -42.757,-35.795 -9.501,-23.887 -11.824,-54.275 -7.029,-91.087 4.765,-36.576 14.961,-66.65 30.591,-90.227 15.633,-23.573 32.889,-35.325 51.778,-35.325 17.625,0 30.163,8.771 37.656,26.396 7.501,17.544 9.215,42.138 5.114,73.623 l -0.869,6.657 H 249.98 c -0.23,1.803 -0.7,5.012 -1.386,9.554 -0.681,4.465 -1.2,8.071 -1.534,10.654 -4.826,37.046 -5.106,65.006 -0.797,83.881 4.309,18.876 13.055,28.355 26.252,28.355 12.755,0 24.173,-7.674 34.242,-22.954 8.832,-13.446 15.719,-31.467 20.64,-54.153 1.139,-9.511 9.782,-8.089 8.073,10e-4 z m -82.961,-67.242 60.485,0.236 c 0.537,-3.37 1.053,-6.582 1.489,-9.558 0.437,-2.975 0.792,-5.717 1.139,-8.379 2.948,-22.637 2.951,-39.473 -0.033,-50.598 -2.99,-11.041 -8.938,-16.603 -17.895,-16.603 -10.176,0 -19.228,7.44 -27.096,22.243 -7.876,14.885 -13.9,35.716 -18.089,62.659 z M 73.626,227.951 c 0.017,0.616 0.031,1.622 0.117,3.172 3.614,75.013 16.125,111.892 37.573,110.708 14.316,-0.789 27.013,-8.318 38.201,-22.671 11.135,-14.352 18.031,-31.811 20.695,-52.447 1.812,-13.997 0.598,-25.727 -3.653,-35.039 -4.304,-9.308 -14.925,-20.054 -31.911,-32.314 -25.333,-18.011 -40.996,-33.447 -46.963,-46.157 -5.957,-12.788 -7.682,-29.072 -5.137,-48.772 3.334,-25.796 12.688,-47.116 28.13,-64.033 15.391,-16.914 33.983,-26.01 55.72,-27.21 8.485,-0.464 16.853,0.706 25.113,3.432 8.31,2.723 16.369,7.015 24.215,12.946 -3.856,29.863 -7.713,59.724 -11.569,89.587 -0.403,6.962 -6.279,6.765 -6.365,0.353 -0.17,-2.4 -0.358,-5.726 -0.673,-9.977 -3.528,-58.641 -15.605,-87.393 -36.233,-86.257 -13.736,0.759 -25.749,6.696 -36.098,17.9 -10.299,11.202 -16.519,24.896 -18.606,41.076 -3.231,25.016 10.43,48.169 41.043,69.381 1.412,0.931 2.37,1.653 2.987,2.086 23.418,16.175 38.095,30.733 43.963,43.838 5.868,13.105 7.501,29.702 4.898,49.872 -3.687,28.533 -14.158,52.938 -31.363,73.135 -17.253,20.203 -37.059,30.916 -59.471,32.155 -12.244,0.673 -23.226,-1.361 -32.986,-6.179 -9.771,-4.739 -16.67,-11.346 -20.707,-19.742 4.24,-32.828 8.482,-65.666 12.722,-98.494 0.451,-5.228 5.972,-5.244 6.358,-0.349 z M 895.392,114.159 c -10.913,0 -20.114,9.285 -27.644,27.791 -7.49,18.503 -13.708,47.219 -18.643,85.989 -4.623,36.312 -5.473,63.183 -2.572,80.691 2.956,17.425 9.773,26.177 20.504,26.177 10.49,0 19.42,-8.979 26.781,-26.871 7.357,-17.887 13.414,-45.297 18.114,-82.226 5.04,-39.614 6.24,-68.097 3.646,-85.45 -2.633,-17.427 -9.318,-26.101 -20.186,-26.101 z m 23.915,-80.538 1.461,-11.444 h 42.907 l -39.167,307.718 h 16.141 l -1.517,11.902 h -40.484 l 6.04,-47.447 c -5.123,18.27 -11.33,31.861 -18.609,40.69 -7.278,8.829 -15.869,13.279 -25.804,13.279 -16.509,0 -28.517,-11.207 -36.101,-33.699 -7.535,-22.498 -9.029,-51.826 -4.423,-87.987 4.578,-36.009 13.835,-65.872 27.737,-89.673 13.881,-23.724 29.017,-35.625 45.291,-35.625 8.863,0 15.709,3.762 20.637,11.21 4.918,7.523 7.902,18.887 8.869,34.012 L 936.66,33.621 Z M 781.8,22.177 h 42.063 l -39.345,308.179 h 16.324 l -1.455,11.441 h -58.394 l 1.461,-11.441 h 15.208 L 795.547,33.621 H 780.339 Z M 613.289,341.798 h -70.656 l 1.645,-12.08 h 17.981 l 29.26,-214.219 h -14.413 l 1.589,-11.61 h 14.408 l 1.812,-13.25 c 3.617,-26.49 9.885,-46.363 18.781,-59.766 8.94,-13.405 20.42,-20.109 34.544,-20.109 4.724,0 9.341,0.784 13.792,2.417 4.462,1.559 8.79,4.053 13.107,7.404 -2.64,19.326 -5.278,38.651 -7.918,57.977 -0.583,6.551 -8.924,6.01 -9.346,0 -1.968,-25.404 -3.834,-41.457 -5.573,-48.08 -1.734,-6.624 -4.189,-9.896 -7.335,-9.896 -4.167,0 -7.484,3.117 -10.013,9.352 -2.479,6.232 -5.168,19.948 -8.046,41.065 l -4.495,32.886 h 34.389 l -1.583,11.61 h -34.39 l -29.255,214.219 h 23.365 z m -217.109,0 1.525,-11.441 h 15.588 L 441.501,118.841 H 425.91 l 1.528,-11.441 h 41.096 l -5.27,39.54 c 4.589,-13.896 11.216,-25.106 19.809,-33.475 8.64,-8.368 17.753,-12.591 27.382,-12.591 14.903,0 24.604,6.064 29.094,18.197 4.484,12.208 4.257,36.623 -0.639,73.32 l -18.397,137.965 h 15.592 l -1.528,11.441 h -57.813 l 1.525,-11.441 h 15.886 L 513.1,188.399 c 4.278,-32.091 5.439,-52.514 3.423,-61.19 -1.973,-8.677 -6.957,-13.05 -14.976,-13.05 -9.918,0 -18.939,7.907 -26.999,23.643 -8.063,15.742 -13.877,37.009 -17.461,63.877 l -17.161,128.677 h 15.589 l -1.522,11.441 H 396.18 Z"
   fill="#EE2530"
   clip-rule="evenodd"
   fill-rule="evenodd" />

</g>

</svg>
